<svg xmlns="http://www.w3.org/2000/svg" width="1200" height="630" viewBox="0 0 1200 630" role="img" aria-label="Auténtiko Café, café y desayuno en Plaza Gavilanes">
  <rect width="1200" height="630" fill="#173f2b"/>
  <circle cx="1030" cy="112" r="210" fill="#d45b3e"/>
  <circle cx="1030" cy="112" r="128" fill="#f2ce58"/>
  <path d="M1004 27c-50 17-76 67-63 120 13 58 61 108 96 141 3-63 15-110 41-158 26-48-16-121-74-103Z" fill="#173f2b"/>
  <path d="M956 254c57-58 88-127 94-208 18 76-2 164-59 231l-35-23Z" fill="#f8f0dd"/>
  <text x="72" y="105" fill="#f8f0dd" font-size="28" font-family="Arial, sans-serif" font-weight="700" letter-spacing="5">PLAZA GAVILANES · LOCAL 14</text>
  <text x="72" y="245" fill="#f8f0dd" font-size="116" font-family="Georgia, serif" font-weight="700">Auténtiko</text>
  <text x="72" y="360" fill="#f8f0dd" font-size="116" font-family="Georgia, serif" font-weight="700">Café.</text>
  <text x="72" y="454" fill="#f2ce58" font-size="62" font-family="Georgia, serif" font-style="italic">Aquí se viene a comer bien.</text>
  <line x1="72" y1="510" x2="1128" y2="510" stroke="#f8f0dd" stroke-opacity=".35"/>
  <text x="72" y="562" fill="#f8f0dd" font-size="25" font-family="Arial, sans-serif" letter-spacing="2">CAFÉ · DESAYUNO · SOBREMESA · GUADALAJARA SUR</text>
</svg>
